<?xml version="1.0" encoding="UTF-8" standalone="no"?>
<!-- Created with Inkscape (http://www.inkscape.org/) -->

<svg
   xmlns:dc="http://purl.org/dc/elements/1.1/"
   xmlns:cc="http://creativecommons.org/ns#"
   xmlns:rdf="http://www.w3.org/1999/02/22-rdf-syntax-ns#"
   xmlns:svg="http://www.w3.org/2000/svg"
   xmlns="http://www.w3.org/2000/svg"
   xmlns:xlink="http://www.w3.org/1999/xlink"
   xmlns:sodipodi="http://sodipodi.sourceforge.net/DTD/sodipodi-0.dtd"
   xmlns:inkscape="http://www.inkscape.org/namespaces/inkscape"
   width="377.16138"
   height="347.11322"
   id="svg3138"
   version="1.1"
   inkscape:version="0.91 r13725"
   sodipodi:docname="logo-mel.svg"
   inkscape:export-filename="/Users/richard/Documents/PyCon AU/logo-mel.png"
   inkscape:export-xdpi="94.349998"
   inkscape:export-ydpi="94.349998">
  <defs
     id="defs3140">
    <path
       sodipodi:nodetypes="cc"
       inkscape:connector-curvature="0"
       id="path5219"
       d="m 538.57891,-525.62798 c -47.1787,46.41531 -61.47583,91.92851 -164.86177,32.53126"
       style="fill:none;stroke:none" />
    <path
       style="fill:none;fill-rule:evenodd;stroke:none;stroke-width:1px;stroke-linecap:butt;stroke-linejoin:miter;stroke-opacity:1"
       d="M 263.68237,329.59983 C 344.7538,263.17125 387.96809,302.09982 387.96809,302.09982"
       id="path3390-8"
       inkscape:connector-curvature="0"
       sodipodi:nodetypes="cc" />
  </defs>
  <sodipodi:namedview
     id="base"
     pagecolor="#000000"
     bordercolor="#666666"
     borderopacity="1.0"
     inkscape:pageopacity="0"
     inkscape:pageshadow="2"
     inkscape:zoom="1.979899"
     inkscape:cx="144.69569"
     inkscape:cy="106.38477"
     inkscape:document-units="px"
     inkscape:current-layer="g3271"
     showgrid="false"
     inkscape:window-width="1166"
     inkscape:window-height="830"
     inkscape:window-x="145"
     inkscape:window-y="123"
     inkscape:window-maximized="0"
     fit-margin-top="10"
     fit-margin-right="10"
     fit-margin-left="10"
     fit-margin-bottom="10" />
  <metadata
     id="metadata3143">
    <rdf:RDF>
      <cc:Work
         rdf:about="">
        <dc:format>image/svg+xml</dc:format>
        <dc:type
           rdf:resource="http://purl.org/dc/dcmitype/StillImage" />
        <dc:title />
      </cc:Work>
    </rdf:RDF>
  </metadata>
  <g
     inkscape:label="Layer 1"
     inkscape:groupmode="layer"
     id="layer1"
     transform="translate(-198.68237,-55.34375)">
    <g
       id="g3271">
      <text
         xml:space="preserve"
         style="font-style:normal;font-weight:normal;font-size:40px;line-height:125%;font-family:sans-serif;letter-spacing:0px;word-spacing:0px;fill:none;fill-opacity:1;stroke:#ffffff;stroke-width:8;stroke-linecap:butt;stroke-linejoin:round;stroke-miterlimit:4;stroke-dasharray:none;stroke-opacity:1"
         id="text3386-2"
         sodipodi:linespacing="125%"
         transform="translate(-0.37473775,-1.0357728)"><textPath
           xlink:href="#path3390-8"
           id="textPath3392-8"
           style="font-style:normal;font-variant:normal;font-weight:normal;font-stretch:normal;font-size:20px;font-family:'Flux Regular';-inkscape-font-specification:'Flux Regular, ';fill:none;fill-opacity:1;stroke:#ffffff;stroke-width:8;stroke-linejoin:round;stroke-miterlimit:4;stroke-dasharray:none;stroke-opacity:1">SOMEWHERE <tspan
   style="font-style:normal;font-variant:normal;font-weight:normal;font-stretch:normal;font-size:17.5px;font-family:Avenir;-inkscape-font-specification:Avenir;letter-spacing:-1px;fill:none;stroke:#ffffff;stroke-width:8;stroke-linejoin:round;stroke-miterlimit:4;stroke-dasharray:none;stroke-opacity:1"
   id="tspan4195-5"
   dx="-1">2018</tspan></textPath></text>
      <path
         style="fill:#ffffff;fill-opacity:1;stroke:#ffffff;stroke-opacity:1;stroke-width:4;stroke-miterlimit:4;stroke-dasharray:none"
         d="m 503.82325,360.31898 c 0,0 -0.32979,1.40763 -0.74652,3.30092 -0.5549,3.92419 -1.48655,2.11095 -0.80587,-0.93227 l 0.47526,-2.17544 -10.60463,1.09437 c -1.98824,0.20518 -1.15752,1.41381 -0.96379,2.4567 0.29405,6.21619 3.23802,15.59031 11.02734,14.80273 8.99682,-2.42177 12.14427,-12.76437 15.16211,-20.49414 -4.52639,0.56381 -9.02957,1.29499 -13.5439,1.94713 z"
         id="path3153-0"
         inkscape:connector-curvature="0"
         sodipodi:nodetypes="ccccscccc" />
      <path
         style="fill:#ffffff;fill-opacity:1;stroke:#ffffff;stroke-opacity:1;stroke-width:4;stroke-miterlimit:4;stroke-dasharray:none"
         d="m 470.03903,355.64334 c 4.13629,12.85018 8.27088,25.70092 12.4082,38.55078 3.26897,-0.13716 7.28543,-9.6e-4 7.28543,-9.6e-4 l 3.5945,-0.40072 c 0,0 1.09918,-1.01842 6.11042,-5.35502 0,0 -3.01056,-8.76822 -2.95047,-12.59007 -2.17376,-4.54162 0.56007,-11.7384 -4.00047,-14.27364 -7.56812,-3.16567 -16.20969,-6.89916 -23.77769,-10.06514 z"
         id="path3160-3"
         inkscape:connector-curvature="0"
         sodipodi:nodetypes="ccccccccc" />
      <path
         sodipodi:nodetypes="cccccccccc"
         inkscape:connector-curvature="0"
         id="path3127"
         d="m 401.35164,103.35706 -58.0727,95.7864 -41.36762,87.45247 c 23.66581,-7.777 70.81438,-28.8959 135.23567,25.4259 l 12.37494,-55.3706 -54.2288,-20.38529 13.29112,-50.76837 52.63414,-1.46205 7.99953,-33.89256 z"
         style="fill:#316a9a;fill-opacity:1;stroke:#ffffff;stroke-width:4;stroke-linecap:butt;stroke-linejoin:miter;stroke-miterlimit:4;stroke-dasharray:none;stroke-opacity:1" />
      <path
         sodipodi:nodetypes="cccscccccccc"
         inkscape:connector-curvature="0"
         id="path3131"
         d="m 463.43525,149.26538 10.83443,-77.85512 29.05715,50.83201 c 0,0 8.77834,99.1243 8.77834,96.89516 0,-2.22913 -3.19382,-77.85485 -3.19382,-77.85485 l 54.69789,85.6387 -43.28567,109.14306 -33.58631,8.73086 -16.44437,-69.58378 12.01863,68.93879 -50.70757,-36.40633 z"
         style="fill:#316a9a;fill-opacity:1;stroke:#ffffff;stroke-width:4;stroke-linecap:butt;stroke-linejoin:miter;stroke-miterlimit:4;stroke-dasharray:none;stroke-opacity:1" />
      <path
         inkscape:connector-curvature="0"
         id="path3103"
         d="m 471.72637,215.13077 c 0,24.08961 -19.52845,43.6181 -43.61807,43.6181 -24.08961,0 -43.6181,-19.52849 -43.6181,-43.6181 0,-24.08961 19.52849,-43.6181 43.6181,-43.6181 24.08962,0 43.61807,19.52849 43.61807,43.6181 z"
         style="fill:#ffffff;fill-opacity:1;fill-rule:evenodd;stroke:none" />
      <path
         style="fill:#316a9a;fill-opacity:1;stroke:#ffffff;stroke-width:4;stroke-linecap:butt;stroke-linejoin:miter;stroke-miterlimit:4;stroke-dasharray:none;stroke-opacity:1"
         d="m 325.76508,101.61264 -38.55765,48.67137 c 0,0 19.30525,27.87221 15.88725,49.66433 -3.34462,21.32418 -31.7994,56.98801 -31.7994,56.98801 l 28.5279,34.34159 c 0,0 22.36463,-25.6035 42.88588,-59.68499 20.52125,-34.08149 74.67347,-146.956127 74.67347,-146.956127 l -45.6908,-3.946088 -22.79994,45.474755 -6.67268,13.30872 z"
         id="path4914"
         inkscape:connector-curvature="0"
         sodipodi:nodetypes="ccscczccccc" />
      <path
         sodipodi:nodetypes="cccccc"
         inkscape:connector-curvature="0"
         id="path3123"
         d="m 290.23924,129.01293 c 0,0 -79.81572,70.62628 -79.56216,72.00942 -0.051,1.07853 14.68232,55.32985 43.50565,118.62328 0,0 18.7421,-19.42823 44.39152,-29.71505 l -24.592,-29.33379 c 51.71878,-44.96882 66.29855,-75.93237 16.25699,-131.58386 z"
         style="fill:#316a9a;fill-opacity:1;stroke:#ffffff;stroke-width:4;stroke-linecap:butt;stroke-linejoin:miter;stroke-miterlimit:4;stroke-dasharray:none;stroke-opacity:1" />
      <path
         inkscape:connector-curvature="0"
         style="fill:#52a349;fill-opacity:1;stroke:#ffffff;stroke-width:0;stroke-miterlimit:4;stroke-dasharray:none"
         d="m 434.63373,188.78769 c -2.16604,-0.54761 -4.27965,-0.89561 -6.18048,-1.0425 -5.59919,-0.43425 -7.08194,1.29542 -8.02326,4.94742 l -1.24319,4.82318 12.65531,3.26195 -0.41439,1.60773 -12.65531,-3.26195 -4.74943,-1.22419 c -3.67799,-0.94801 -7.46835,0.43256 -9.55967,4.37839 -2.40445,4.52094 -3.23132,7.51569 -3.31518,12.8618 -0.0661,3.97848 1.39414,7.20176 5.07212,8.14978 l 4.35118,1.12154 1.49031,-5.78192 c 1.07666,-4.17709 5.64048,-6.93008 9.93224,-5.82386 l 12.64056,3.25815 c 3.51869,0.90695 7.07442,-1.2662 7.98525,-4.79993 l 3.10607,-12.05057 c 0.88401,-3.42966 -1.34523,-6.75177 -4.63205,-8.20937 -2.08071,-0.92225 -4.29404,-1.66807 -6.46008,-2.21565 z m -7.84378,2.11515 c 1.30721,0.33694 2.09507,1.69703 1.75122,3.03105 -0.34263,1.32929 -1.6872,2.12906 -2.99441,1.79213 -1.31189,-0.33816 -2.09764,-1.68702 -1.75502,-3.01631 0.34385,-1.33402 1.68632,-2.14502 2.99821,-1.80687 z"
         id="path1948-0" />
      <path
         inkscape:connector-curvature="0"
         style="fill:#ffd43b;fill-opacity:1;stroke:#ffffff;stroke-width:0;stroke-miterlimit:4;stroke-dasharray:none"
         d="m 445.6465,206.05041 -1.44849,5.61966 c -1.12299,4.35685 -5.76194,7.0718 -9.97406,5.98611 l -12.64056,-3.25814 c -3.46246,-0.89247 -7.09148,1.33242 -7.98524,4.79992 l -3.10608,12.05057 c -0.88401,3.42966 1.57836,6.21565 4.67007,8.06188 3.70235,2.21046 7.48898,3.4135 12.64056,3.25815 3.42379,-0.10125 7.04392,-1.14794 7.98524,-4.79993 l 1.24319,-4.82318 -12.64056,-3.25814 0.4144,-1.60773 12.64056,3.25815 6.32765,1.63097 c 3.67799,0.94802 5.70982,-1.26419 7.98144,-4.78517 2.34305,-3.62366 3.26945,-7.45039 3.31518,-12.86181 0.0348,-3.89575 -0.9912,-7.09791 -4.67387,-8.04713 l -4.74943,-1.22418 z m -14.97533,28.68482 c 1.31189,0.33814 2.09765,1.68701 1.75502,3.0163 -0.34385,1.33402 -1.68632,2.14502 -2.99821,1.80688 -1.30721,-0.33694 -2.09507,-1.69704 -1.75122,-3.03107 0.34263,-1.32928 1.6872,-2.12905 2.99441,-1.79211 z"
         id="path1950-4" />
      <path
         sodipodi:nodetypes="cc"
         inkscape:connector-curvature="0"
         id="path3181"
         d="M 469.16798,359.02269 C 410.1946,301.00355 392.32319,244.11205 263.09076,318.35861"
         style="fill:none;stroke:none" />
      <path
         sodipodi:nodetypes="cccc"
         inkscape:connector-curvature="0"
         id="path5758"
         d="m 253.44323,208.9448 5.16916,16.36897 c 30.91682,-17.91315 30.48321,-33.28736 22.74431,-40.31946 z"
         style="fill:#ffffff;stroke:none" />
      <path
         sodipodi:nodetypes="ccczcc"
         inkscape:connector-curvature="0"
         id="path3153"
         d="m 514.05651,360.93023 c -8.17536,22.46888 -20.1647,19.87567 -21.22416,2.33554 l 7.44477,-0.74636 c 0,0 -1.5458,7.21384 1.12219,7.60532 2.668,0.39149 3.36019,-7.99793 3.36019,-7.99793 z"
         style="fill:#316a9a;fill-opacity:1;stroke:none" />
      <path
         sodipodi:nodetypes="cccccccccccccc"
         inkscape:connector-curvature="0"
         id="path3160"
         d="m 471.65862,355.18146 11.9687,37.1875 5.6428,0.088 -3.02938,-11.96679 2.46512,-0.33725 3.77665,11.87204 4.43682,-3.88238 -5.63932,-24.753 z m 10.94201,12.88387 3.34548,0.63038 1.48301,6.42315 -2.68387,0.46242 z"
         style="fill:#316a9a;fill-opacity:1;stroke:none" />
      <path
         sodipodi:nodetypes="csc"
         inkscape:connector-curvature="0"
         id="path3247"
         d="m 265,346.6479 c 18.06878,-9.20442 37.06125,-24.70623 46.68817,-29.27842 23.70299,-11.25745 55.2908,-20.80016 109.9496,20.79364"
         style="fill:none;stroke:none" />
      <path
         style="fill:none;fill-rule:evenodd;stroke:none;stroke-width:1px;stroke-linecap:butt;stroke-linejoin:miter;stroke-opacity:1"
         d="M 263.68237,329.59983 C 344.7538,263.17125 387.96809,302.09982 387.96809,302.09982"
         id="path3390"
         inkscape:connector-curvature="0"
         sodipodi:nodetypes="cc" />
      <text
         xml:space="preserve"
         style="font-style:normal;font-weight:normal;font-size:40px;line-height:125%;font-family:sans-serif;letter-spacing:0px;word-spacing:0px;fill:#5e5e5e;fill-opacity:1;stroke:none;stroke-width:2.0999999;stroke-linecap:butt;stroke-linejoin:miter;stroke-miterlimit:4;stroke-dasharray:none;stroke-opacity:1"
         id="text3386"
         sodipodi:linespacing="125%"><textPath
           xlink:href="#path3390"
           id="textPath3392"
           style="font-style:normal;font-variant:normal;font-weight:normal;font-stretch:normal;font-size:20px;font-family:'Flux Regular';-inkscape-font-specification:'Flux Regular, ';fill:#5e5e5e;fill-opacity:1;stroke:none;stroke-width:2.0999999;stroke-miterlimit:4;stroke-dasharray:none;stroke-opacity:1">SOMEWHERE <tspan
   style="font-style:normal;font-variant:normal;font-weight:normal;font-stretch:normal;font-size:17.5px;font-family:Avenir;-inkscape-font-specification:Avenir;letter-spacing:-1px;stroke:none;stroke-width:2.0999999;stroke-miterlimit:4;stroke-dasharray:none;stroke-opacity:1"
   id="tspan4195"
   dx="-1">2018</tspan></textPath></text>
    </g>
  </g>
</svg>
